#N canvas 23 105 483 286 10;
#X obj 256 244 dac~;
#X obj 26 56 r #transport;
#X obj 310 206 *~;
#X obj 223 207 *~;
#X obj 246 173 line~;
#X obj 197 38 inlet~;
#X obj 265 40 inlet~;
#X obj 197 93 clip~ -1 1;
#X obj 266 93 clip~ -1 1;
#X obj 197 66 hip~ 3;
#X obj 265 67 hip~ 3;
#X text 311 68 fight DC;
#X text 337 94 clip it like an iPhod;
#X obj 145 180 writesf~ 2;
#X msg 26 138 open \$1;
#X obj 26 80 route scene record play;
#X obj 26 104 symbol;
#X msg 81 137 start;
#X msg 124 137 stop;
#X obj 71 104 sel 1;
#X msg 246 153 \$1 50;
#X connect 1 0 15 0;
#X connect 2 0 0 1;
#X connect 3 0 0 0;
#X connect 4 0 3 1;
#X connect 4 0 2 0;
#X connect 5 0 9 0;
#X connect 6 0 10 0;
#X connect 7 0 3 0;
#X connect 7 0 13 0;
#X connect 8 0 13 1;
#X connect 8 0 2 1;
#X connect 9 0 7 0;
#X connect 10 0 8 0;
#X connect 14 0 13 0;
#X connect 15 0 16 0;
#X connect 15 1 19 0;
#X connect 15 2 20 0;
#X connect 16 0 14 0;
#X connect 17 0 13 0;
#X connect 18 0 13 0;
#X connect 19 0 17 0;
#X connect 19 1 18 0;
#X connect 20 0 4 0;
#X coords 0 0 1 1 110 40 0;
