#N canvas 729 260 211 291 10;
#X obj 78 184 *~;
#X obj 38 227 outlet~;
#X obj 116 227 outlet~;
#X obj 78 137 line~;
#X obj 31 28 r #transport;
#X obj 31 49 route play;
#X obj 93 161 adc~;
#X msg 78 113 \$1 50;
#X obj 111 28 r #micvolume;
#X obj 111 49 t b f;
#X obj 78 93 * 1;
#X connect 0 0 1 0;
#X connect 0 0 2 0;
#X connect 3 0 0 0;
#X connect 4 0 5 0;
#X connect 5 0 10 0;
#X connect 6 0 0 1;
#X connect 7 0 3 0;
#X connect 8 0 9 0;
#X connect 9 0 10 0;
#X connect 9 1 10 1;
#X connect 10 0 7 0;
#X coords 0 0 1 1 110 40 0;
