#N canvas 214 208 279 208 10;
#X obj 94 19 r playchord;
#X obj 21 19 r endchord;
#X obj 174 18 r shift;
#X obj 120 172 dac~;
#N canvas 604 299 311 280 strum 0;
#X obj 154 16 inlet;
#X obj 75 251 outlet~;
#X obj 77 76 t b f;
#X obj 57 167 synth;
#X obj 154 38 unpack f f f f f f f;
#X obj 75 231 *~;
#X obj 57 104 synth;
#X obj 57 125 synth;
#X obj 57 146 synth;
#X obj 57 188 synth;
#X obj 57 209 synth;
#X connect 0 0 4 0;
#X connect 2 0 6 1;
#X connect 2 1 6 1;
#X connect 3 0 9 0;
#X connect 3 1 9 1;
#X connect 4 0 2 0;
#X connect 4 1 7 1;
#X connect 4 2 8 1;
#X connect 4 3 3 1;
#X connect 4 4 9 1;
#X connect 4 5 10 1;
#X connect 4 6 5 1;
#X connect 5 0 1 0;
#X connect 6 0 7 0;
#X connect 6 1 7 1;
#X connect 7 0 8 0;
#X connect 7 1 8 1;
#X connect 8 0 3 0;
#X connect 8 1 3 1;
#X connect 9 0 10 0;
#X connect 9 1 10 1;
#X connect 10 0 5 0;
#X restore 94 63 pd strum;
#N canvas 630 165 634 236 parse 1;
#X obj 229 21 inlet;
#N canvas 130 185 416 441 minor 0;
#X obj 23 354 outlet;
#X msg 188 319 48 55 60 63 67 0 0.2;
#X text 318 320 Cm;
#X msg 189 297 49 52 56 61 64 0 0.2;
#X text 319 297 C#m;
#X obj 20 44 route 0 1 2 3 4 5 6 7 8 9 10 11;
#X text 320 273 Dm;
#X msg 190 273 50 53 57 62 65 0 0.2;
#X text 320 250 D#m;
#X msg 191 250 51 54 58 63 66 0 0.2;
#X msg 192 228 40 47 52 55 59 64 0.166;
#X text 343 229 Em;
#X msg 192 206 41 48 53 56 60 65 0.166;
#X text 340 205 Fm;
#X msg 192 184 42 49 54 57 61 66 0.166;
#X text 341 185 F#m;
#X msg 192 162 43 50 55 58 62 67 0.166;
#X text 340 163 Gm;
#X msg 193 141 44 51 56 59 63 68 0.166;
#X text 340 142 G#m;
#X msg 194 120 45 52 57 60 64 0 0.2;
#X text 325 122 Am;
#X msg 195 99 46 53 58 61 65 0 0.2;
#X text 323 100 A#m;
#X msg 196 77 47 54 59 62 66 0 0.2;
#X text 328 78 Bm;
#X obj 20 25 inlet;
#X connect 1 0 0 0;
#X connect 3 0 0 0;
#X connect 5 0 1 0;
#X connect 5 1 3 0;
#X connect 5 2 7 0;
#X connect 5 3 9 0;
#X connect 5 4 10 0;
#X connect 5 5 12 0;
#X connect 5 6 14 0;
#X connect 5 7 16 0;
#X connect 5 8 18 0;
#X connect 5 9 20 0;
#X connect 5 10 22 0;
#X connect 5 11 24 0;
#X connect 7 0 0 0;
#X connect 9 0 0 0;
#X connect 10 0 0 0;
#X connect 12 0 0 0;
#X connect 14 0 0 0;
#X connect 16 0 0 0;
#X connect 18 0 0 0;
#X connect 20 0 0 0;
#X connect 22 0 0 0;
#X connect 24 0 0 0;
#X connect 26 0 5 0;
#X restore 28 118 pd minor;
#N canvas 289 274 413 420 major 0;
#X obj 28 362 outlet;
#X msg 199 325 48 52 55 60 64 0 0.2;
#X text 328 325 C;
#X msg 199 304 49 53 56 61 65 0 0.2;
#X text 329 304 C#;
#X obj 25 45 route 0 1 2 3 4 5 6 7 8 9 10 11;
#X msg 199 280 50 54 57 62 66 0 0.2;
#X text 328 281 D;
#X text 327 259 D#;
#X msg 199 259 51 55 58 63 67 0 0.2;
#X msg 198 236 40 47 52 56 59 64 0.166;
#X text 344 238 E;
#X msg 197 212 41 48 53 57 60 65 0.166;
#X text 348 213 F;
#X msg 197 189 42 49 54 58 61 66 0.166;
#X text 348 189 F#;
#X msg 198 167 43 47 50 55 59 67 0.166;
#X text 348 168 G;
#X text 347 148 G#;
#X msg 199 146 44 51 56 60 63 68 0.166;
#X msg 199 125 45 52 57 61 64 0 0.2;
#X text 330 124 A;
#X msg 200 103 46 53 58 62 65 0 0.2;
#X text 332 104 A#;
#X msg 201 80 47 54 59 63 66 0 0.2;
#X text 333 82 B;
#X obj 25 24 inlet;
#X connect 1 0 0 0;
#X connect 3 0 0 0;
#X connect 5 0 1 0;
#X connect 5 1 3 0;
#X connect 5 2 6 0;
#X connect 5 3 9 0;
#X connect 5 4 10 0;
#X connect 5 5 12 0;
#X connect 5 6 14 0;
#X connect 5 7 16 0;
#X connect 5 8 19 0;
#X connect 5 9 20 0;
#X connect 5 10 22 0;
#X connect 5 11 24 0;
#X connect 6 0 0 0;
#X connect 9 0 0 0;
#X connect 10 0 0 0;
#X connect 12 0 0 0;
#X connect 14 0 0 0;
#X connect 16 0 0 0;
#X connect 19 0 0 0;
#X connect 20 0 0 0;
#X connect 22 0 0 0;
#X connect 24 0 0 0;
#X connect 26 0 5 0;
#X restore 87 118 pd major;
#X obj 298 192 outlet;
#X obj 391 45 print unknown;
#N canvas 488 301 490 305 dim7 0;
#X obj 39 268 outlet;
#X obj 25 45 route 0 1 2 3 4 5 6 7 8 9 10 11;
#X obj 25 24 inlet;
#X msg 288 199 48 51 57 60 66 0 0.2;
#X text 417 198 Cdim7;
#X msg 288 177 49 52 58 61 67 0 0.2;
#X text 418 178 C#dim7;
#X msg 288 154 47 50 56 59 65 0 0.2;
#X text 417 155 Ddim7;
#X connect 1 0 3 0;
#X connect 1 1 5 0;
#X connect 1 2 7 0;
#X connect 1 3 3 0;
#X connect 1 4 5 0;
#X connect 1 5 7 0;
#X connect 1 6 3 0;
#X connect 1 7 5 0;
#X connect 1 8 7 0;
#X connect 1 9 3 0;
#X connect 1 10 5 0;
#X connect 1 11 7 0;
#X connect 2 0 1 0;
#X connect 3 0 0 0;
#X connect 5 0 0 0;
#X connect 7 0 0 0;
#X restore 148 118 pd dim7;
#N canvas 777 215 404 441 dom7 0;
#X obj 28 362 outlet;
#X obj 25 45 route 0 1 2 3 4 5 6 7 8 9 10 11;
#X obj 25 24 inlet;
#X msg 199 325 48 52 58 60 64 0 0.2;
#X msg 199 304 49 53 59 61 68 0 0.2;
#X text 328 325 C7;
#X text 329 305 C#7;
#X msg 199 280 50 57 60 66 0 0 0.25;
#X text 328 281 D7;
#X msg 199 259 51 58 61 67 0 0 0.25;
#X text 327 259 D#7;
#X text 344 238 E7;
#X msg 198 236 40 47 52 56 62 64 0.166;
#X text 348 213 F7;
#X msg 197 212 41 48 53 57 63 65 0.166;
#X msg 197 189 42 49 54 58 64 66 0.166;
#X text 348 189 F#7;
#X msg 198 167 43 47 50 55 59 65 0.166;
#X text 348 168 G7;
#X msg 199 146 44 51 56 60 66 68 0.166;
#X text 347 148 G#7;
#X msg 199 125 45 52 55 61 64 0 0.2;
#X text 331 124 A7;
#X text 331 104 A#7;
#X msg 201 102 46 53 56 62 65 0 0.2;
#X msg 201 80 47 51 57 59 66 0 0.2;
#X text 333 82 B7;
#X connect 1 0 3 0;
#X connect 1 1 4 0;
#X connect 1 2 7 0;
#X connect 1 3 9 0;
#X connect 1 4 12 0;
#X connect 1 5 14 0;
#X connect 1 6 15 0;
#X connect 1 7 17 0;
#X connect 1 8 19 0;
#X connect 1 9 21 0;
#X connect 1 10 24 0;
#X connect 1 11 25 0;
#X connect 2 0 1 0;
#X connect 3 0 0 0;
#X connect 4 0 0 0;
#X connect 7 0 0 0;
#X connect 9 0 0 0;
#X connect 12 0 0 0;
#X connect 14 0 0 0;
#X connect 15 0 0 0;
#X connect 17 0 0 0;
#X connect 19 0 0 0;
#X connect 21 0 0 0;
#X connect 24 0 0 0;
#X connect 25 0 0 0;
#X restore 205 118 pd dom7;
#N canvas 823 226 442 452 min7 0;
#X obj 28 362 outlet;
#X obj 25 45 route 0 1 2 3 4 5 6 7 8 9 10 11;
#X obj 25 24 inlet;
#X msg 199 325 48 55 58 63 67 0 0.2;
#X text 327 325 Cm7;
#X msg 199 304 49 56 59 64 68 0 0.2;
#X text 327 305 C#m7;
#X msg 199 282 50 57 60 65 0 0 0.25;
#X text 328 281 Dm7;
#X msg 199 259 51 58 61 66 0 0 0.25;
#X text 327 259 D#m7;
#X msg 197 235 40 47 52 55 62 64 0.166;
#X text 343 235 Em7;
#X msg 197 212 41 48 51 56 60 65 0.166;
#X text 344 213 Fm7;
#X msg 197 189 42 49 52 57 61 66 0.166;
#X text 348 189 F#m7;
#X msg 199 168 43 50 53 58 62 67 0.166;
#X text 347 169 Gm7;
#X msg 199 146 44 51 54 59 63 68 0.166;
#X text 347 148 G#m7;
#X msg 199 125 45 52 57 60 67 0 0.2;
#X text 328 125 Am7;
#X text 329 103 A#m7;
#X msg 201 103 46 53 56 61 65 0 0.2;
#X msg 201 80 47 54 57 62 66 0 0.2;
#X text 333 82 Bm7;
#X connect 1 0 3 0;
#X connect 1 1 5 0;
#X connect 1 2 7 0;
#X connect 1 3 9 0;
#X connect 1 4 11 0;
#X connect 1 5 13 0;
#X connect 1 6 15 0;
#X connect 1 7 17 0;
#X connect 1 8 19 0;
#X connect 1 9 21 0;
#X connect 1 10 24 0;
#X connect 1 11 25 0;
#X connect 2 0 1 0;
#X connect 3 0 0 0;
#X connect 5 0 0 0;
#X connect 7 0 0 0;
#X connect 9 0 0 0;
#X connect 11 0 0 0;
#X connect 13 0 0 0;
#X connect 15 0 0 0;
#X connect 17 0 0 0;
#X connect 19 0 0 0;
#X connect 21 0 0 0;
#X connect 24 0 0 0;
#X connect 25 0 0 0;
#X restore 262 118 pd min7;
#N canvas 641 110 406 432 maj7 0;
#X obj 28 362 outlet;
#X obj 25 45 route 0 1 2 3 4 5 6 7 8 9 10 11;
#X obj 25 24 inlet;
#X msg 199 325 48 52 55 59 64 0 0.2;
#X text 328 326 Cmaj7;
#X text 328 303 C#maj7;
#X msg 199 302 49 53 56 60 65 0 0.2;
#X msg 199 280 50 57 61 66 0 0 0.25;
#X text 328 281 Dmaj7;
#X msg 199 259 51 58 62 67 0 0 0.25;
#X text 326 259 D#maj7;
#X msg 198 236 40 47 51 56 59 64 0.166;
#X text 345 236 Emaj7;
#X msg 197 212 41 48 53 57 60 64 0.166;
#X text 345 213 Fmaj7;
#X msg 197 189 42 49 54 58 61 65 0.166;
#X text 345 190 F#maj7;
#X msg 198 167 43 47 50 55 59 66 0.166;
#X text 345 167 Gmaj7;
#X msg 199 146 44 48 51 56 60 67 0.166;
#X text 346 146 G#maj7;
#X msg 199 125 45 52 56 61 64 0 0.2;
#X text 328 126 Amaj7;
#X msg 201 102 46 53 57 62 0 0 0.25;
#X text 330 102 A#maj7;
#X msg 201 80 47 54 58 63 0 0 0.25;
#X text 330 80 Bmaj7;
#X connect 1 0 3 0;
#X connect 1 1 6 0;
#X connect 1 2 7 0;
#X connect 1 3 9 0;
#X connect 1 4 11 0;
#X connect 1 5 13 0;
#X connect 1 6 15 0;
#X connect 1 7 17 0;
#X connect 1 8 19 0;
#X connect 1 9 21 0;
#X connect 1 10 23 0;
#X connect 1 11 25 0;
#X connect 2 0 1 0;
#X connect 3 0 0 0;
#X connect 6 0 0 0;
#X connect 7 0 0 0;
#X connect 9 0 0 0;
#X connect 11 0 0 0;
#X connect 13 0 0 0;
#X connect 15 0 0 0;
#X connect 17 0 0 0;
#X connect 19 0 0 0;
#X connect 21 0 0 0;
#X connect 23 0 0 0;
#X connect 25 0 0 0;
#X restore 319 118 pd maj7;
#N canvas 861 122 411 405 min6 0;
#X obj 23 354 outlet;
#X obj 20 44 route 0 1 2 3 4 5 6 7 8 9 10 11;
#X obj 20 25 inlet;
#X msg 188 319 45 51 55 60 67 0 0.2;
#X text 318 320 Cm6;
#X msg 189 297 49 53 56 61 65 0 0.2;
#X text 319 297 C#m6;
#X msg 190 273 47 50 57 59 65 0 0.2;
#X text 321 273 Dm6;
#X msg 191 250 51 58 60 66 0 0 0.25;
#X text 320 250 D#m6;
#X msg 192 228 40 47 52 55 61 64 0.166;
#X text 338 228 Em6;
#X msg 192 206 41 48 50 56 60 65 0.166;
#X text 339 206 Fm6;
#X msg 192 184 42 49 51 57 61 66 0.166;
#X text 341 184 F#m6;
#X msg 192 162 43 50 58 62 64 0 0.2;
#X text 321 163 Gm6;
#X msg 193 141 44 51 59 63 65 0 0.2;
#X text 322 142 G#m6;
#X msg 194 120 45 52 57 60 66 0 0.2;
#X text 324 121 Am6;
#X msg 195 99 46 53 55 61 0 0 0.25;
#X text 323 100 A#m6;
#X msg 196 77 47 56 62 66 0 0 0.25;
#X text 325 78 Bm6;
#X connect 1 0 3 0;
#X connect 1 1 5 0;
#X connect 1 2 7 0;
#X connect 1 3 9 0;
#X connect 1 4 11 0;
#X connect 1 5 13 0;
#X connect 1 6 15 0;
#X connect 1 7 17 0;
#X connect 1 8 19 0;
#X connect 1 9 21 0;
#X connect 1 10 23 0;
#X connect 1 11 25 0;
#X connect 2 0 1 0;
#X connect 3 0 0 0;
#X connect 5 0 0 0;
#X connect 7 0 0 0;
#X connect 9 0 0 0;
#X connect 11 0 0 0;
#X connect 13 0 0 0;
#X connect 15 0 0 0;
#X connect 17 0 0 0;
#X connect 19 0 0 0;
#X connect 21 0 0 0;
#X connect 23 0 0 0;
#X connect 25 0 0 0;
#X restore 377 117 pd min6;
#N canvas 742 136 403 424 maj6 0;
#X obj 28 362 outlet;
#X obj 25 45 route 0 1 2 3 4 5 6 7 8 9 10 11;
#X obj 25 24 inlet;
#X msg 199 325 40 45 52 55 60 67 0.166;
#X text 345 325 C6;
#X msg 199 304 46 53 56 61 65 0 0.2;
#X text 329 304 C#6;
#X text 328 281 D6;
#X msg 199 280 42 54 57 62 66 0 0.2;
#X msg 199 259 46 53 56 61 65 0 0.2;
#X text 327 259 D#6;
#X msg 198 236 40 47 52 56 61 64 0.166;
#X text 344 237 E6;
#X text 328 214 F6;
#X msg 197 212 48 53 57 62 65 0 0.2;
#X msg 197 189 49 54 58 63 66 0 0.2;
#X text 327 191 F#6;
#X msg 197 167 43 50 55 59 64 0 0.2;
#X text 328 169 G6;
#X msg 199 146 44 51 56 60 65 0 0.2;
#X text 327 147 G#6;
#X msg 199 125 42 52 57 61 64 0 0.2;
#X text 328 125 A6;
#X msg 200 103 46 53 58 62 67 0 0.2;
#X text 332 104 A#6;
#X msg 201 80 47 54 59 63 68 0 0.2;
#X text 331 81 B6;
#X connect 1 0 3 0;
#X connect 1 1 5 0;
#X connect 1 2 8 0;
#X connect 1 3 9 0;
#X connect 1 4 11 0;
#X connect 1 5 14 0;
#X connect 1 6 15 0;
#X connect 1 7 17 0;
#X connect 1 8 19 0;
#X connect 1 9 21 0;
#X connect 1 10 23 0;
#X connect 1 11 25 0;
#X connect 2 0 1 0;
#X connect 3 0 0 0;
#X connect 5 0 0 0;
#X connect 8 0 0 0;
#X connect 9 0 0 0;
#X connect 11 0 0 0;
#X connect 14 0 0 0;
#X connect 15 0 0 0;
#X connect 17 0 0 0;
#X connect 19 0 0 0;
#X connect 21 0 0 0;
#X connect 23 0 0 0;
#X connect 25 0 0 0;
#X restore 437 118 pd maj6;
#X obj 229 45 route 0 1 2 3 4 5 6 7 8 9;
#N canvas 755 223 408 400 sus2 0;
#X obj 28 362 outlet;
#X obj 25 45 route 0 1 2 3 4 5 6 7 8 9 10 11;
#X obj 25 24 inlet;
#X msg 199 325 48 50 55 60 0 0 0.25;
#X text 328 325 Csus2;
#X msg 199 304 49 51 56 61 0 0 0.25;
#X text 329 304 C#sus2;
#X msg 200 282 40 45 50 57 62 64 0.166;
#X text 344 282 Dsus2;
#X text 327 259 D#sus2;
#X msg 198 259 41 46 51 58 65 0 0.2;
#X text 329 236 Esus2;
#X msg 198 236 40 47 54 59 64 0 0.2;
#X msg 197 212 41 48 53 55 60 65 0.166;
#X text 348 213 Fsus2;
#X msg 198 189 42 49 54 56 61 66 0.166;
#X text 348 189 F#sus2;
#X msg 198 167 45 50 55 62 67 0 0.2;
#X text 328 167 Gsus2;
#X msg 199 146 46 51 56 63 68 0 0.2;
#X text 327 146 G#sus2;
#X text 328 125 Asus2;
#X msg 199 125 45 52 59 61 64 0 0.2;
#X msg 200 103 46 53 58 60 65 0 0.2;
#X text 333 104 A#sus2;
#X msg 201 80 49 54 59 66 0 0 0.25;
#X text 333 81 Bsus2;
#X connect 1 0 3 0;
#X connect 1 1 5 0;
#X connect 1 2 7 0;
#X connect 1 3 10 0;
#X connect 1 4 12 0;
#X connect 1 5 13 0;
#X connect 1 6 15 0;
#X connect 1 7 17 0;
#X connect 1 8 19 0;
#X connect 1 9 22 0;
#X connect 1 10 23 0;
#X connect 1 11 25 0;
#X connect 2 0 1 0;
#X connect 3 0 0 0;
#X connect 5 0 0 0;
#X connect 7 0 0 0;
#X connect 10 0 0 0;
#X connect 12 0 0 0;
#X connect 13 0 0 0;
#X connect 15 0 0 0;
#X connect 17 0 0 0;
#X connect 19 0 0 0;
#X connect 22 0 0 0;
#X connect 23 0 0 0;
#X connect 25 0 0 0;
#X restore 497 119 pd sus2;
#N canvas 782 282 394 412 sus4 0;
#X obj 28 362 outlet;
#X obj 25 45 route 0 1 2 3 4 5 6 7 8 9 10 11;
#X obj 25 24 inlet;
#X msg 199 325 48 53 55 60 67 0 0.2;
#X text 327 325 Csus4;
#X msg 199 304 49 54 56 61 68 0 0.2;
#X text 329 304 C#sus4;
#X msg 199 280 50 57 62 67 0 0 0.25;
#X text 328 281 Dsus4;
#X msg 199 259 51 58 63 68 0 0 0.25;
#X text 327 259 D#sus4;
#X msg 198 236 40 47 52 57 59 64 0.166;
#X text 342 236 Esus4;
#X msg 197 212 41 48 53 58 60 65 0.166;
#X text 343 213 Fsus4;
#X msg 197 189 42 49 54 59 61 66 0.166;
#X text 343 190 F#sus4;
#X msg 198 167 43 50 55 60 62 67 0.166;
#X text 345 168 Gsus4;
#X msg 199 146 44 51 56 61 63 68 0.166;
#X text 347 148 G#sus4;
#X msg 199 125 45 52 57 62 64 0 0.2;
#X text 327 125 Asus4;
#X msg 200 103 46 53 58 63 65 0 0.2;
#X text 330 104 A#sus4;
#X msg 201 81 47 54 59 64 66 0 0.2;
#X text 333 82 Bsus4;
#X connect 1 0 3 0;
#X connect 1 1 5 0;
#X connect 1 2 7 0;
#X connect 1 3 9 0;
#X connect 1 4 11 0;
#X connect 1 5 13 0;
#X connect 1 6 15 0;
#X connect 1 7 17 0;
#X connect 1 8 19 0;
#X connect 1 9 21 0;
#X connect 1 10 23 0;
#X connect 1 11 25 0;
#X connect 2 0 1 0;
#X connect 3 0 0 0;
#X connect 5 0 0 0;
#X connect 7 0 0 0;
#X connect 9 0 0 0;
#X connect 11 0 0 0;
#X connect 13 0 0 0;
#X connect 15 0 0 0;
#X connect 17 0 0 0;
#X connect 19 0 0 0;
#X connect 21 0 0 0;
#X connect 23 0 0 0;
#X connect 25 0 0 0;
#X restore 559 119 pd sus4;
#X connect 0 0 11 0;
#X connect 1 0 3 0;
#X connect 2 0 3 0;
#X connect 5 0 3 0;
#X connect 6 0 3 0;
#X connect 7 0 3 0;
#X connect 8 0 3 0;
#X connect 9 0 3 0;
#X connect 10 0 3 0;
#X connect 11 0 1 0;
#X connect 11 1 2 0;
#X connect 11 2 5 0;
#X connect 11 3 6 0;
#X connect 11 4 7 0;
#X connect 11 5 8 0;
#X connect 11 6 9 0;
#X connect 11 7 10 0;
#X connect 11 8 12 0;
#X connect 11 9 13 0;
#X connect 11 10 4 0;
#X connect 12 0 3 0;
#X connect 13 0 3 0;
#X restore 94 40 pd parse;
#N canvas 14 402 151 182 click 0;
#X obj 75 61 noise~;
#X obj 50 107 *~;
#X obj 76 85 *~ 0.1;
#X obj 19 62 vline~;
#X msg 19 38 0 \, 1 5 0 \, 0 30 5;
#X obj 19 14 inlet;
#X obj 50 128 outlet~;
#X connect 0 0 2 0;
#X connect 1 0 6 0;
#X connect 2 0 1 1;
#X connect 3 0 1 0;
#X connect 4 0 3 0;
#X connect 5 0 4 0;
#X restore 174 40 pd click;
#X obj 129 144 clip~ -0.999 0.999;
#X obj 129 102 +~;
#X obj 129 123 *~ 0.9;
#X connect 0 0 5 0;
#X connect 1 0 4 0;
#X connect 2 0 6 0;
#X connect 4 0 8 0;
#X connect 5 0 4 0;
#X connect 6 0 8 1;
#X connect 7 0 3 0;
#X connect 7 0 3 1;
#X connect 8 0 9 0;
#X connect 9 0 7 0;
