#N canvas 41 251 348 239 10;
#X obj 144 16 inlet;
#X obj 110 203 outlet~;
#X obj 116 177 pluck~;
#X obj 130 113 t b f;
#X msg 125 137 1;
#X msg 93 137 0;
#X obj 161 137 mtof;
#X obj 25 15 inlet~;
#X obj 101 90 sel 0;
#X obj 144 36 route bang;
#X obj 101 70 f;
#X obj 194 205 outlet;
#X obj 194 69 del 35;
#X connect 0 0 9 0;
#X connect 2 0 1 0;
#X connect 3 0 4 0;
#X connect 3 1 6 0;
#X connect 4 0 2 0;
#X connect 5 0 2 0;
#X connect 6 0 2 1;
#X connect 7 0 1 0;
#X connect 8 0 5 0;
#X connect 8 1 3 0;
#X connect 9 0 10 0;
#X connect 9 0 12 0;
#X connect 9 1 10 1;
#X connect 10 0 8 0;
#X connect 12 0 11 0;
